<svg width="75" height="75" viewBox="0 0 75 75" fill="none" xmlns="http://www.w3.org/2000/svg">
<path d="M55.8236 0.772064C54.817 6.10197 56.893 9.32602 60.9506 11.1991C61.674 12.484 62.2717 13.7611 62.7435 15.0349C60.3372 12.3582 57.5064 11.0544 53.6218 12.9716C55.8393 17.3154 59.2206 18.0703 63.2939 16.6548C64.269 19.9575 64.5049 23.1973 64.2847 26.4685C64.2847 26.5 64.2847 26.5314 64.269 26.5629C64.4263 26.6573 64.5836 26.7359 64.7251 26.8303C65.4957 27.2863 66.2506 27.7581 66.9741 28.23C67.037 27.711 67.0842 27.1762 67.1156 26.6573C67.3043 23.8893 67.1785 21.0899 66.5966 18.2433C70.8115 19.0453 73.3593 16.8907 74.9005 12.9558C71.0946 12.5469 67.8391 13.1477 66.2034 16.5605C65.7945 15.0821 65.2598 13.5881 64.5836 12.0845C68.3109 9.59181 70.5127 6.41179 68.6726 1.4499C65.134 2.79142 63.404 4.9303 62.9637 7.65738C62.2402 4.21944 60.2743 1.65121 55.8236 0.772064ZM27.3104 7.09749C26.1623 10.2838 25.0614 14.5474 24.3694 18.7623C23.8662 21.8919 23.5359 25.0059 23.473 27.711C28.254 31.7843 33.4282 34.7252 39.1686 34.9926C33.9472 26.7359 29.2606 16.1201 27.3104 7.09749ZM6.25499 13.3207C6.73939 25.1789 11.2924 41.425 23.6617 49.9962L24.5267 50.5939L24.2122 51.5847C23.7089 53.1731 22.9855 54.5728 21.8531 55.6422C20.705 56.7117 19.1952 57.4037 17.3394 57.734C13.8008 58.363 8.82479 57.8598 1.31512 56.523C-0.194681 60.3132 0.011344 64.4809 1.38274 67.8622C2.75415 71.212 5.20285 73.6183 8.00384 74.2474C11.912 69.2462 17.7955 63.1755 25.8635 63.5372C34.0416 63.899 43.3992 61.6343 48.9666 56.0512C50.9325 54.101 52.6152 49.3986 53.5903 45.2624C54.5654 41.1262 54.9586 37.5561 54.9586 37.5561L55.0529 36.5968L55.9966 36.3451C59.3936 35.4644 63.4827 34.6623 68.0592 32.3505C66.7067 31.4383 65.1183 30.3688 63.2782 29.2679C60.4631 27.6009 57.3648 26.154 55.8393 25.981C53.2286 25.7136 51.7503 26.1854 50.728 26.9403C49.7215 27.6952 49.0609 28.859 48.479 30.2588C47.9129 31.6585 47.4725 33.2469 46.6861 34.6781C45.8841 36.1249 44.4844 37.4775 42.4713 37.6977C33.6641 38.7199 26.1466 34.0962 19.84 28.2457C14.6501 23.4332 10.1553 17.74 6.25499 13.3207ZM65.4014 36.5968C64.2847 37.0057 63.2153 37.3674 62.193 37.6662C61.91 38.7514 61.6111 39.8365 61.3123 40.9217L64.0488 41.6766C64.5206 39.9938 64.9767 38.2953 65.4014 36.5968Z" fill="white"/>
</svg>
