<svg width="74" height="66" viewBox="0 0 74 66" fill="none" xmlns="http://www.w3.org/2000/svg">
<path d="M36.9332 0.162415C41.4688 0.162415 45.1054 3.79905 45.1054 8.33462C45.1054 12.8702 41.4688 16.5068 36.9332 16.5068C32.3976 16.5068 28.761 12.8702 28.761 8.33462C28.761 3.79905 32.4385 0.162415 36.9332 0.162415ZM73.7082 49.1957V41.0235C64.5553 41.0235 56.71 37.1008 50.826 30.0727L45.3506 23.5349C44.5904 22.6134 43.6355 21.8717 42.5546 21.363C41.4736 20.8543 40.2935 20.5913 39.0988 20.5929H34.8902C32.3976 20.5929 30.1094 21.6553 28.5567 23.5349L23.0813 30.0727C17.1565 37.1008 9.31114 41.0235 0.158264 41.0235V49.1957C11.4768 49.1957 21.3651 44.4149 28.761 35.9158V45.1096L12.9069 51.443C10.1692 52.5463 8.33047 55.3248 8.33047 58.226C8.33047 62.2712 11.5994 65.5401 15.6446 65.5401H24.6749V63.497C24.6749 60.7878 25.7511 58.1895 27.6669 56.2738C29.5826 54.358 32.1809 53.2818 34.8902 53.2818H47.1485C48.2926 53.2818 49.1915 54.1807 49.1915 55.3248C49.1915 56.4689 48.2926 57.3679 47.1485 57.3679H34.8902C31.4987 57.3679 28.761 60.1056 28.761 63.497V65.5401H58.2218C62.2671 65.5401 65.5359 62.2712 65.5359 58.226C65.5359 55.3248 63.6972 52.5463 60.9595 51.443L45.1054 45.1096V35.9158C52.5013 44.4149 62.3896 49.1957 73.7082 49.1957Z" fill="white"/>
</svg>
