<svg width="597" height="43" viewBox="0 0 597 43" fill="none" xmlns="http://www.w3.org/2000/svg">
<path d="M330.941 11.859C330.941 12.9869 330.395 14.0204 329.297 14.9657C328.204 15.9096 326.616 16.6107 324.548 17.0855C312.604 19.8566 306.154 21.2503 305.191 21.2503C304.051 21.2503 303.481 20.9846 303.481 20.4637C303.481 20.0425 304.152 19.4718 305.499 18.7339C306.056 18.4222 307.977 17.4634 311.281 15.8728C317.521 12.8308 320.722 11.285 320.869 11.2337C323.674 10.0027 325.947 9.38787 327.7 9.38787C329.861 9.38787 330.941 10.21 330.941 11.859ZM320.779 5.89314C320.779 6.75347 320.039 7.77718 318.548 8.95314C317.728 9.58159 315.684 10.9448 312.419 13.0413C306.198 17.0209 302.651 19.0124 301.779 19.0124C301.336 19.0124 300.985 18.7488 300.722 18.2245L301.251 17.1239C303.003 15.5014 304.887 13.6439 306.898 11.5486C309.058 9.29333 310.328 7.98782 310.71 7.62292C313.828 4.66079 316.531 3.19141 318.811 3.19141C320.124 3.19141 320.779 4.08873 320.779 5.89314ZM301.905 4.08873C301.905 4.45031 301.699 5.41165 301.293 6.95433C300.765 8.73221 300.241 10.5159 299.717 12.2938C299.107 14.3339 298.738 16.0257 298.621 17.3609C298.564 18.119 298.493 18.5912 298.403 18.7753C298.315 19.0377 298.109 19.1635 297.789 19.1635C297.469 19.1635 297.267 19.0474 297.177 18.8122C297.177 18.7856 297.115 18.4488 297.002 17.7938C296.708 16.1927 296.127 13.6057 295.248 10.0196C294.579 7.3723 294.244 5.48296 294.244 4.36024C294.244 3.02555 294.629 1.96552 295.406 1.18613C296.175 0.394306 297.192 -0.000114441 298.45 -0.000114441C299.441 -0.000114441 300.267 0.38784 300.921 1.16275C301.58 1.93385 301.905 2.90895 301.905 4.08873ZM303.263 25.413C303.263 26.3816 302.824 27.1501 301.948 27.7273C301.307 28.1187 300.681 28.5004 300.067 28.8664C299.631 29.3393 299.413 31.1158 299.413 34.209C299.413 35.4666 299.368 36.3024 299.278 36.7182C299.133 37.2987 298.828 37.5845 298.36 37.5845C297.95 37.5845 297.701 36.9043 297.614 35.541C297.41 32.0611 297.267 29.9133 297.177 29.1034C296.212 28.475 295.442 27.7422 294.858 26.9013C294.387 26.1944 294.155 25.6203 294.155 25.176C294.155 24.1276 294.586 23.2037 295.449 22.4081C296.307 21.6099 297.294 21.2089 298.403 21.2089C299.804 21.2089 300.964 21.6131 301.884 22.4261C302.805 23.2407 303.263 24.2306 303.263 25.413ZM295.074 19.0124C295.074 19.5333 294.766 19.7957 294.155 19.7957C293.893 19.7957 292.945 19.2197 291.309 18.0691C289.356 16.7052 287.073 14.9521 284.479 12.803C282.756 11.4197 281.049 10.0196 279.354 8.60333C278.128 7.48045 277.516 6.41395 277.516 5.4221C277.516 4.66079 277.831 3.99419 278.457 3.41682C279.085 2.84791 279.865 2.55251 280.802 2.55251C282.26 2.55251 283.59 3.14149 284.787 4.3206C285.337 4.84606 286.461 6.30133 288.158 8.68096C292.768 15.0985 295.074 18.5402 295.074 19.0124ZM292.184 21.2089C292.184 21.7562 291.936 22.0382 291.442 22.0382C290.945 22.0382 289.968 21.8108 288.507 21.3683C286.726 20.8208 284.927 20.2699 283.118 19.7173C276.786 17.8301 272.667 16.4564 270.775 15.591C267.969 14.312 266.568 12.871 266.568 11.2772C266.568 9.59851 267.879 8.7556 270.51 8.7556C271.558 8.7556 273.41 9.4902 276.068 10.9584C278.17 12.1344 281.558 14.2309 286.229 17.2429C286.582 17.4503 288.026 18.3444 290.567 19.9137C291.644 20.5668 292.184 20.9982 292.184 21.2089Z" fill="#923C1E"/>
<path d="M250.771 25.9578C250.322 25.0804 249.69 24.2511 248.922 23.4835C254.502 21.6305 260.813 21.1276 266.655 21.8579C266.99 21.8993 267.345 21.9569 267.71 22.0251C261.857 22.2875 256.176 23.7782 250.771 25.9578ZM217.861 39.8889C213.164 40.5789 208.868 39.5189 205.39 37.3194C210.832 38.1771 216.903 37.465 221.635 36.2464C229.905 34.1116 236.754 28.8292 244.412 25.2775C245.012 26.2662 245.311 27.341 245.197 28.4924C243.632 29.2751 242.088 30.0913 240.585 30.9569C233.473 35.0556 226.335 38.6481 217.861 39.8889ZM239.146 21.2125C239.379 21.2573 239.618 21.2805 239.858 21.2935C240.387 21.587 240.896 21.9025 241.375 22.2356C233.71 25.1965 227.14 30.0765 219.518 33.1896C214.255 35.3387 206.796 36.3378 201.908 33.108C213.887 27.1122 225.348 18.5853 239.146 21.2125ZM182.005 36.3111C177.305 37.0013 173.009 35.9457 169.532 33.7481C174.975 34.6072 181.044 33.8945 185.774 32.6739C188.335 32.0136 190.758 31.045 193.112 29.9236C193.171 30.0148 193.223 30.1075 193.283 30.1989C193.709 31.0347 194.197 31.8063 194.712 32.5442C190.724 34.2871 186.559 35.6439 182.005 36.3111ZM212.197 20.1888C217.979 18.0961 224.653 17.5156 230.796 18.2867C231.13 18.33 231.482 18.3844 231.844 18.4526C222.178 18.8873 212.965 22.6406 204.726 27.3813C202.889 28.4391 201.05 29.461 199.188 30.4199C198.569 29.5089 198.116 28.5138 197.825 27.4771C202.529 24.8764 207.128 22.0251 212.197 20.1888ZM274 21.1445C265.114 18.4227 255.583 18.4693 246.551 20.6074C246.214 20.6864 245.884 20.7843 245.548 20.8723C243.182 19.4146 240.481 18.2867 238.141 17.572C229.253 14.8533 219.724 14.8948 210.691 17.0329C205.964 18.1538 201.749 20.1759 197.643 22.3918C198.046 20.3696 199.006 18.4526 200.497 16.9578C201.13 16.328 201.568 14.3475 199.226 13.7351C197.467 13.283 195.039 14.7653 194.421 15.3841C191.353 18.4557 190.528 22.2661 191.371 25.8482C188.866 27.2154 186.329 28.5234 183.661 29.6119C178.015 31.9222 169.842 32.911 165.031 28.7722C160.401 24.7955 160.536 17.4935 164.638 13.3853C165.271 12.7535 165.709 10.7716 163.367 10.1626C161.611 9.70846 159.18 11.1928 158.562 11.8114C154.201 16.1751 154.36 22.0354 157.417 26.62C163 37.5403 176.461 40.3036 188.74 37.9479C191.578 37.4042 194.338 36.4835 197.057 35.3491C203.721 41.9388 214.553 43.4445 224.597 41.5171C231.391 40.2154 237.747 36.79 244.097 33.3334C244.37 33.9275 244.895 34.4815 245.813 34.7983C247.644 35.4404 249.77 33.5407 250.209 32.8773C250.998 31.6781 251.371 30.5423 251.475 29.4474C258.877 25.7938 266.497 23.1665 275.005 24.7883C275.238 24.8316 275.477 24.853 275.719 24.8666C279.866 27.1771 282.777 30.6486 279.989 34.8729C279.446 35.7054 279.578 37.6427 281.67 38.3728C283.505 39.0097 285.631 37.1185 286.067 36.4466C291.053 28.8901 280.914 23.2626 274 21.1445Z" fill="#923C1E"/>
<path d="M415.928 36.3111C411.372 35.6439 407.21 34.2871 403.223 32.5442C403.739 31.8032 404.226 31.0314 404.655 30.1956C404.712 30.1044 404.764 30.0148 404.821 29.9268C407.175 31.045 409.598 32.0136 412.161 32.6739C416.889 33.8945 422.958 34.6072 428.401 33.7481C424.925 35.9457 420.629 37.0013 415.928 36.3111ZM378.415 33.1896C370.794 30.0765 364.223 25.1965 356.558 22.2356C357.039 21.9025 357.548 21.587 358.075 21.2935C358.315 21.2805 358.556 21.2573 358.789 21.2125C372.585 18.5853 384.047 27.1122 396.023 33.108C391.139 36.3378 383.677 35.3387 378.415 33.1896ZM380.071 39.8889C371.598 38.6481 364.462 35.0556 357.347 30.9569C355.846 30.0913 354.301 29.2751 352.738 28.4924C352.624 27.341 352.923 26.2662 353.52 25.2775C361.181 28.8292 368.028 34.1116 376.302 36.2464C381.03 37.465 387.099 38.1771 392.544 37.3194C389.067 39.5189 384.771 40.5789 380.071 39.8889ZM331.278 21.8579C337.119 21.1276 343.433 21.6305 349.011 23.4835C348.243 24.2511 347.613 25.0804 347.162 25.9545C341.757 23.7782 336.076 22.2841 330.223 22.0218C330.587 21.9569 330.943 21.8993 331.278 21.8579ZM367.136 18.2867C373.281 17.5156 379.953 18.0961 385.738 20.1888C390.806 22.0251 395.404 24.8764 400.107 27.4771C399.818 28.5169 399.366 29.5089 398.746 30.4199C396.885 29.461 395.046 28.4391 393.208 27.3813C384.968 22.6406 375.757 18.8873 366.088 18.4526C366.449 18.3844 366.804 18.33 367.136 18.2867ZM439.373 11.8114C438.755 11.1928 436.325 9.70846 434.568 10.1626C432.225 10.7716 432.662 12.7535 433.295 13.3853C437.396 17.4935 437.533 24.7955 432.903 28.7722C428.093 32.911 419.916 31.9222 414.275 29.6119C411.604 28.5234 409.065 27.2154 406.561 25.8482C407.403 22.2621 406.578 18.4557 403.512 15.3841C402.895 14.7653 400.465 13.283 398.707 13.7351C396.366 14.3475 396.805 16.328 397.435 16.9578C398.927 18.4526 399.885 20.3696 400.29 22.3918C396.184 20.1759 391.969 18.1538 387.241 17.0329C378.208 14.8948 368.68 14.8533 359.792 17.572C357.452 18.2867 354.753 19.4146 352.385 20.8723C352.051 20.7843 351.719 20.6864 351.382 20.6074C342.351 18.4693 332.821 18.4227 323.935 21.1445C317.017 23.2626 306.881 28.8901 311.865 36.4466C312.304 37.1185 314.428 39.0097 316.263 38.3728C318.354 37.6427 318.489 35.7054 317.942 34.8729C315.155 30.6486 318.067 27.1771 322.214 24.8666C322.456 24.853 322.697 24.8316 322.93 24.7883C331.438 23.1665 339.058 25.7938 346.458 29.4474C346.562 30.5391 346.937 31.6781 347.726 32.8773C348.163 33.5407 350.289 35.4404 352.122 34.7983C353.039 34.4815 353.563 33.9244 353.836 33.3334C360.187 36.79 366.543 40.2154 373.336 41.5171C383.383 43.4445 394.213 41.9388 400.878 35.3491C403.597 36.4835 406.357 37.4042 409.195 37.9479C421.473 40.3036 434.933 37.5403 440.514 26.62C443.574 22.0387 443.733 16.1751 439.373 11.8114Z" fill="#923C1E"/>
<path d="M151.551 29.1105C151.551 29.1105 7.03133 27.4863 1.59765 27.4863C-0.666238 27.2149 -0.394536 26.1613 1.59765 25.9975C7.03133 25.9975 149.738 24.3732 149.738 24.3732C150.418 24.3349 151.234 24.8247 151.731 26.2008C152.231 27.581 152.727 29.1353 151.551 29.1105Z" fill="#923C1E"/>
<path d="M444.935 29.1105C444.935 29.1105 589.452 27.4863 594.884 27.4863C597.15 27.2149 596.878 26.1613 594.884 25.9975C589.452 25.9975 446.746 24.3732 446.746 24.3732C446.068 24.3349 445.25 24.8247 444.753 26.2008C444.255 27.581 443.757 29.1353 444.935 29.1105Z" fill="#923C1E"/>
</svg>
